Exact Audio Copy V0.99 prebeta 4 from 23. January 2008

EAC extraction logfile from 27. December 2009, 21:46

Various / Ada - Adaptions - Mixtape #1

Used drive  : PLEXTOR DVDR   PX-755A   Adapter: 1  ID: 0

Read mode               : Secure
Utilize accurate stream : Yes
Defeat audio cache      : Yes
Make use of C2 pointers : No

Read offset correction                      : 30
Overread into Lead-In and Lead-Out          : Yes
Fill up missing offset samples with silence : Yes
Delete leading and trailing silent blocks   : No
Null samples used in CRC calculations       : Yes
Used interface                              : Native Win32 interface for Win NT & 2000
Gap handling                                : Appended to previous track

Used output format              : User Defined Encoder
Selected bitrate                : 128 kBit/s
Quality                         : High
Add ID3 tag                     : No
Command line compressor         : C:Program FilesExact Audio CopyFlacflac.exe
Additional command line options : -8 -V -T "ARTIST=%a" -T "TITLE=%t" -T "ALBUM=%g" -T "DATE=%y" -T "TRACKNUMBER=%n" -T "GENRE=%m" -T "COMMENT=EAC FLAC -8" %s


TOC of the extracted CD

     Track |   Start  |  Length  | Start sector | End sector 
    ---------------------------------------------------------
        1  |  0:00.00 |  8:44.15 |         0    |    39314   
        2  |  8:44.15 |  5:33.29 |     39315    |    64318   
        3  | 14:17.44 |  6:27.09 |     64319    |    93352   
        4  | 20:44.53 |  6:11.45 |     93353    |   121222   
        5  | 26:56.23 |  8:15.36 |    121223    |   158383   
        6  | 35:11.59 |  5:56.10 |    158384    |   185093   
        7  | 41:07.69 |  8:26.10 |    185094    |   223053   
        8  | 49:34.04 |  6:41.46 |    223054    |   253174   
        9  | 56:15.50 |  5:18.29 |    253175    |   277053   
       10  | 61:34.04 |  5:40.48 |    277054    |   302601   
       11  | 67:14.52 |  7:20.64 |    302602    |   335665   
       12  | 74:35.41 |  2:38.74 |    335666    |   347589   


Track  1

     Filename F:TorrentsVA - Ada - Adaptions - Mixtape #1Various - Ada - Adaptions - Mixtape #1 1. Tracey Thorn - Grand Canyon (Ada Remix).wav

     Pre-gap length  0:00:02.00

     Peak level 94.9 %
     Track quality 100.0 %
     Test CRC 9824F0A9
     Copy CRC 9824F0A9
     Accurately ripped (confidence 2)  [D77A8637]
     Copy OK

Track  2

     Filename F:TorrentsVA - Ada - Adaptions - Mixtape #1Various - Ada - Adaptions - Mixtape #1 2. Ada - Fizzmann (Dee Pulse Remix).wav

     Peak level 93.5 %
     Track quality 99.9 %
     Test CRC 2655B0C8
     Copy CRC 2655B0C8
     Accurately ripped (confidence 2)  [2F2C1AB9]
     Copy OK

Track  3

     Filename F:TorrentsVA - Ada - Adaptions - Mixtape #1Various - Ada - Adaptions - Mixtape #1 3. Booka Shade - Vertigo Vs. Cha (Ada Remix).wav

     Peak level 94.2 %
     Track quality 100.0 %
     Test CRC 457BDBD3
     Copy CRC 457BDBD3
     Accurately ripped (confidence 2)  [D5B96228]
     Copy OK

Track  4

     Filename F:TorrentsVA - Ada - Adaptions - Mixtape #1Various - Ada - Adaptions - Mixtape #1 4. Brant Feat. Mr. Roper - Last Night I Dreamt That Somebody Loved Me (Ada Remix).wav

     Copy aborted

Track  5

     Copy aborted

Track  6

     Copy aborted

Track  7

     Copy aborted

Track  8

     Copy aborted

Track  9

     Copy aborted

Track 10

     Copy aborted

Track 11

     Copy aborted

Track 12

     Pre-gap length  0:00:04.02

     Copy aborted


 3 track(s) accurately ripped
 9 track(s) canceled

Some tracks could not be verified as accurate

There were errors

End of status report

------------------------------------------------------------

Exact Audio Copy V0.99 prebeta 4 from 23. January 2008

EAC extraction logfile from 27. December 2009, 22:12

Various / Ada - Adaptions - Mixtape #1

Used drive  : Optiarc DVD RW AD-7201A   Adapter: 0  ID: 0

Read mode               : Secure
Utilize accurate stream : Yes
Defeat audio cache      : Yes
Make use of C2 pointers : No

Read offset correction                      : 48
Overread into Lead-In and Lead-Out          : No
Fill up missing offset samples with silence : Yes
Delete leading and trailing silent blocks   : No
Null samples used in CRC calculations       : Yes
Used interface                              : Native Win32 interface for Win NT & 2000
Gap handling                                : Appended to previous track

Used output format              : User Defined Encoder
Selected bitrate                : 128 kBit/s
Quality                         : High
Add ID3 tag                     : No
Command line compressor         : C:Program FilesExact Audio CopyFlacflac.exe
Additional command line options : -8 -V -T "ARTIST=%a" -T "TITLE=%t" -T "ALBUM=%g" -T "DATE=%y" -T "TRACKNUMBER=%n" -T "GENRE=%m" -T "COMMENT=EAC FLAC -8" %s


TOC of the extracted CD

     Track |   Start  |  Length  | Start sector | End sector 
    ---------------------------------------------------------
        1  |  0:00.00 |  8:44.15 |         0    |    39314   
        2  |  8:44.15 |  5:33.29 |     39315    |    64318   
        3  | 14:17.44 |  6:27.09 |     64319    |    93352   
        4  | 20:44.53 |  6:11.45 |     93353    |   121222   
        5  | 26:56.23 |  8:15.36 |    121223    |   158383   
        6  | 35:11.59 |  5:56.10 |    158384    |   185093   
        7  | 41:07.69 |  8:26.10 |    185094    |   223053   
        8  | 49:34.04 |  6:41.46 |    223054    |   253174   
        9  | 56:15.50 |  5:18.29 |    253175    |   277053   
       10  | 61:34.04 |  5:40.48 |    277054    |   302601   
       11  | 67:14.52 |  7:20.64 |    302602    |   335665   
       12  | 74:35.41 |  2:38.74 |    335666    |   347589   


Track  4

     Filename F:TorrentsVA - Ada - Adaptions - Mixtape #1Various - Ada - Adaptions - Mixtape #1 4. Brant Feat. Mr. Roper - Last Night I Dreamt That Somebody Loved Me (Ada Remix).wav

     Peak level 94.4 %
     Track quality 100.0 %
     Test CRC 9B3AE424
     Copy CRC 9B3AE424
     Accurately ripped (confidence 2)  [EB272A86]
     Copy OK

Track  5

     Filename F:TorrentsVA - Ada - Adaptions - Mixtape #1Various - Ada - Adaptions - Mixtape #1 5. Ada - Maps (Thomas , Meyer Remix).wav

     Peak level 95.5 %
     Track quality 100.0 %
     Test CRC 73EA995A
     Copy CRC 73EA995A
     Accurately ripped (confidence 2)  [1CA35790]
     Copy OK

Track  6

     Filename F:TorrentsVA - Ada - Adaptions - Mixtape #1Various - Ada - Adaptions - Mixtape #1 6. Alex Smoke - Never Want To See You Again (Ada Remix).wav

     Peak level 91.8 %
     Track quality 100.0 %
     Test CRC 588B0414
     Copy CRC 588B0414
     Accurately ripped (confidence 2)  [5B2FC9D5]
     Copy OK

Track  7

     Filename F:TorrentsVA - Ada - Adaptions - Mixtape #1Various - Ada - Adaptions - Mixtape #1 7. Ada - Eve (DJ Koze Remix).wav

     Peak level 91.6 %
     Track quality 100.0 %
     Test CRC 7C7B08ED
     Copy CRC 7C7B08ED
     Accurately ripped (confidence 2)  [3A03B22F]
     Copy OK

Track  8

     Filename F:TorrentsVA - Ada - Adaptions - Mixtape #1Various - Ada - Adaptions - Mixtape #1 8. Ada Feat. Raz Ohara - Lovestoned.wav

     Peak level 92.9 %
     Track quality 100.0 %
     Test CRC A36BEDEB
     Copy CRC A36BEDEB
     Accurately ripped (confidence 2)  [574072BD]
     Copy OK

Track  9

     Filename F:TorrentsVA - Ada - Adaptions - Mixtape #1Various - Ada - Adaptions - Mixtape #1 9. Andi Teichmann - Tape (Ada Mix).wav

     Peak level 93.8 %
     Track quality 100.0 %
     Test CRC 78E59E69
     Copy CRC 78E59E69
     Accurately ripped (confidence 2)  [01C899FD]
     Copy OK

Track 10

     Filename F:TorrentsVA - Ada - Adaptions - Mixtape #1Various - Ada - Adaptions - Mixtape #110. Ada - Living It Up.wav

     Peak level 93.4 %
     Track quality 100.0 %
     Test CRC 35C39899
     Copy CRC 35C39899
     Accurately ripped (confidence 2)  [52DA526A]
     Copy OK

Track 11

     Filename F:TorrentsVA - Ada - Adaptions - Mixtape #1Various - Ada - Adaptions - Mixtape #111. Ada - Forty Winks.wav

     Peak level 94.1 %
     Track quality 100.0 %
     Test CRC 4BD6A840
     Copy CRC 4BD6A840
     Accurately ripped (confidence 2)  [D1D92D01]
     Copy OK

Track 12

     Filename F:TorrentsVA - Ada - Adaptions - Mixtape #1Various - Ada - Adaptions - Mixtape #112. Ada Feat. Cosmic DJ - Our Blindhouse (Each And Every One).wav

     Pre-gap length  0:00:04.02

     Peak level 91.4 %
     Track quality 100.0 %
     Test CRC 679F16FC
     Copy CRC 679F16FC
     Accurately ripped (confidence 2)  [FE08933E]
     Copy OK


All tracks accurately ripped

No errors occurred

End of status report
